<svg width="260" height="260" viewBox="0 0 260 260" fill="none" xmlns="http://www.w3.org/2000/svg">
<rect width="260" height="260" fill="white"/>
<path d="M126.033 182.784L50.8262 85.2097H83.6369C91.5399 85.2097 95.8292 88.3704 108.663 103.65C119.196 116.19 131.087 134.509 135.566 141.263C140.045 148.017 140.275 157.654 137.641 164.24C135.006 170.825 126.033 182.784 126.033 182.784Z" fill="url(#paint0_linear)"/>
<path d="M119.836 118.206C119.836 118.206 119.934 118.338 120.116 118.584C121.393 120.551 125.801 130.486 106.399 155.068C84.4639 182.861 50.0264 226.213 50.0264 226.213H88.2241C90.8584 226.213 96.8663 219.522 109.158 204.691C121.45 189.86 134.987 170.406 138.158 165.232C141.329 160.058 140.792 152.452 138.158 145.866C135.732 139.801 122.236 121.449 120.116 118.584C119.949 118.327 119.836 118.206 119.836 118.206Z" fill="#E83200"/>
<path d="M133.967 77.2159L209.174 174.79H176.364C168.461 174.79 164.171 171.63 151.337 156.35C140.805 143.81 128.913 125.491 124.434 118.737C119.955 111.983 119.726 102.346 122.36 95.7605C124.994 89.1747 133.967 77.2159 133.967 77.2159Z" fill="url(#paint1_linear)"/>
<path d="M140.164 141.794C140.164 141.794 140.066 141.662 139.884 141.416C138.607 139.449 134.199 129.514 153.601 104.932C175.537 77.1392 209.974 33.7866 209.974 33.7866H171.776C169.142 33.7866 163.134 40.478 150.843 55.3092C138.551 70.1404 125.013 89.5938 121.843 94.768C118.672 99.9423 119.208 107.548 121.843 114.134C124.269 120.199 137.765 138.551 139.884 141.416C140.051 141.673 140.164 141.794 140.164 141.794Z" fill="#12AAED"/>
<defs>
<linearGradient id="paint0_linear" x1="90.6175" y1="126.819" x2="128.695" y2="126.938" gradientUnits="userSpaceOnUse">
<stop stop-color="#E83200"/>
<stop offset="1" stop-color="#98321F"/>
</linearGradient>
<linearGradient id="paint1_linear" x1="169.383" y1="133.181" x2="131.306" y2="133.062" gradientUnits="userSpaceOnUse">
<stop stop-color="#12AAED"/>
<stop offset="1" stop-color="#98321F"/>
</linearGradient>
</defs>
</svg>
